<?xml version="1.0" standalone="no"?><!DOCTYPE svg PUBLIC "-//W3C//DTD SVG 1.1//EN" "http://www.w3.org/Graphics/SVG/1.1/DTD/svg11.dtd"><svg t="1723003687381" class="icon" viewBox="0 0 1024 1024" version="1.1" xmlns="http://www.w3.org/2000/svg" p-id="19016" xmlns:xlink="http://www.w3.org/1999/xlink" width="200" height="200"><path d="M418.927 580.818L286.206 713.589l-23.585-23.634 132.771-132.722-37.14-37.14L187.794 690.55h-0.049v0.051l-68.868 211.916 211.917-68.818h0.05l0.049-0.05v-0.049L501.3 663.191l-82.373-82.373z m137.09-184.259l61.47-61.471 23.586 23.586-61.52 61.42 82.422 82.373 98.164-98.212-143.049-143-98.163 98.213 37.09 37.091zM759.84 118.504l-94.141 94.191 143.049 143.048 94.24-94.141L759.84 118.504z m-32.274 443.744c-16.98 0-35.105 5.562-53.029 14.747L446.782 349.289c9.136-17.925 14.598-35.898 14.598-52.434 0-90.565-86.098-178.252-176.614-178.252h-1.688c-0.348 0-10.625 10.428-16.236 16.038 73.039 73.039 67.031 61.172 67.031 105.958 0 36.346-58.243 93.744-93.744 93.744-7.796 0-13.853 0.198-18.868 0.198-24.727 0-25.075-5.214-87.041-67.229-5.858 5.81-16.137 15.988-16.137 16.286 1.092 91.112 87.189 178.253 178.302 178.253 16.485 0 34.161-5.214 51.54-14.003l228.55 228.501c-8.738 17.379-13.853 34.856-13.853 50.845 0 90.566 86.098 178.302 176.613 178.302h1.639c0.396 0 10.676-10.477 16.188-16.088-72.939-73.038-66.932-61.122-66.932-105.958 0-36.296 58.191-93.744 93.693-93.744 7.746 0 13.854-0.198 18.918-0.198 24.727 0 25.125 5.214 87.09 67.229 5.809-5.76 15.988-15.89 16.088-16.236-1.192-91.063-87.19-178.253-178.353-178.253z" fill="#0a66c2" p-id="19017"></path></svg>